PathFileType	4	(X/Y/Z)	 s10c0401.trc
DataRate	CameraRate	NumFrames	NumMarkers	Units	OrigDataRate	OrigDataStartFrame	OrigNumFrames
200	200	4	50	mm	200	1251	2000
Frame#	Time	racr			lacr			c7			jug			rlel			rdr			llel			ldr			s2			lic			ric			lasi			rasi			rpsi			lpsi			rgt			lgt			rth1			rth2			rth3			rth4			rlfc			rmfc			rsh1			rsh2			rsh3			rsh4			rlmal			rmmal			rcal			rtoe			rmt5			lth1			lth2			lth4			lth3			llfc			lmfc			llmal			lmmal			lcal			lmt5			lsh1			lsh2			lsh3			lsh4			ltoe			SBIKE			LBIKE			RBIKE			
		X1	Y1	Z1	X2	Y2	Z2	X3	Y3	Z3	X4	Y4	Z4	X5	Y5	Z5	X6	Y6	Z6	X7	Y7	Z7	X8	Y8	Z8	X9	Y9	Z9	X10	Y10	Z10	X11	Y11	Z11	X12	Y12	Z12	X13	Y13	Z13	X14	Y14	Z14	X15	Y15	Z15	X16	Y16	Z16	X17	Y17	Z17	X18	Y18	Z18	X19	Y19	Z19	X20	Y20	Z20	X21	Y21	Z21	X22	Y22	Z22	X23	Y23	Z23	X24	Y24	Z24	X25	Y25	Z25	X26	Y26	Z26	X27	Y27	Z27	X28	Y28	Z28	X29	Y29	Z29	X30	Y30	Z30	X31	Y31	Z31	X32	Y32	Z32	X33	Y33	Z33	X34	Y34	Z34	X35	Y35	Z35	X36	Y36	Z36	X37	Y37	Z37	X38	Y38	Z38	X39	Y39	Z39	X40	Y40	Z40	X41	Y41	Z41	X42	Y42	Z42	X43	Y43	Z43	X44	Y44	Z44	X45	Y45	Z45	X46	Y46	Z46	X47	Y47	Z47	X48	Y48	Z48	X49	Y49	Z49	X50	Y50	Z50	
1251	6.2550	628.877544	1266.188255	15.781901	610.673135	1320.591338	-333.988470	631.137720	1339.541613	-159.922192	614.129345	1196.333476	-172.442319	471.428447	1050.117336	95.841044	617.004612	912.584001	10.843724	520.810967	1083.662010	-458.802810	644.213988	914.399928	-389.946417	102.407139	1157.610914	-142.864521	249.852691	1175.836782	-314.563101	297.175077	1142.988982	-18.746938	269.007487	1084.484770	-294.551175	285.741733	1054.752909	-43.863813	153.705414	1201.408747	-87.107128	148.717423	1222.028172	-198.686427	188.731732	1028.764484	21.737643	142.601929	1055.936884	-355.524719	242.164963	897.057092	24.942006	293.317387	829.760813	-2.861091	301.830431	746.357683	-20.729450	325.321602	846.757454	-13.487787	348.892252	655.294244	-52.342799	323.410230	653.524213	-162.484901	287.362278	557.058043	-13.128621	284.500549	469.432510	-27.712502	240.301210	395.052024	-30.371432	312.561820	464.803840	-53.579798	206.221550	298.706923	-43.422114	228.105969	308.160776	-126.628826	150.576156	286.848048	-92.086995	383.152793	216.257693	-82.588959	295.324025	208.345125	-22.584027	225.315567	951.170274	-384.645063	299.082163	906.517314	-377.072220	324.136584	930.672170	-364.992567	342.162010	829.184525	-380.795357	408.565816	739.450886	-375.696327	401.335007	721.395304	-254.929758	66.974763	570.924984	-376.126403	78.058346	558.360538	-296.542635	7.526626	589.537009	-332.395912	74.455645	423.520355	-393.230419	294.457382	693.793040	-408.463684	236.707861	631.281435	-392.834950	150.243010	605.137481	-388.612058	252.903552	609.364233	-364.420183	142.853521	372.955131	-334.165844	-204.517275	834.410719	-223.798496	-78.306383	81.800081	-423.648666	-102.687513	80.459863	-24.354779	
1252	6.2600	629.996057	1265.174732	13.429473	609.106479	1321.697097	-336.475934	630.288038	1340.115607	-161.375103	614.181261	1196.809611	-174.590330	471.885189	1050.478240	95.028166	616.419234	911.903734	10.525131	520.606155	1083.636776	-459.655467	644.095691	914.436172	-390.036397	102.423165	1153.777930	-140.173628	247.854316	1175.022800	-313.563335	298.396524	1139.889202	-18.056925	268.329749	1083.181121	-294.222529	287.493001	1051.810268	-43.332099	154.207274	1198.030470	-85.099510	147.867439	1218.931440	-195.581991	189.235173	1024.512839	22.853723	142.977692	1052.772472	-354.552568	240.365853	893.116473	25.802382	289.610733	824.722896	-2.181538	296.348848	741.165521	-20.337126	322.024211	841.047965	-12.517154	342.161442	649.094831	-52.050979	316.403204	647.658360	-161.971805	281.545634	550.655510	-12.929099	279.305402	462.929831	-28.082822	235.573817	388.328969	-30.321333	307.166457	458.508389	-54.232415	201.643542	292.754507	-43.407036	223.087165	301.862322	-126.485656	145.929640	281.619204	-91.992460	377.385238	207.620917	-83.174924	289.592728	201.153007	-22.904386	228.775993	950.400311	-383.979578	303.918785	908.149106	-376.427570	328.110191	933.068319	-364.050518	349.528380	832.358001	-380.765540	416.406026	744.720878	-375.569513	409.587527	725.511757	-254.810619	73.402199	577.882421	-376.048218	85.456223	566.112649	-295.257280	13.947709	596.503055	-332.123863	81.288612	430.628729	-393.154254	302.066380	699.393906	-408.421805	243.681442	637.554293	-392.910293	156.984836	612.192743	-388.591573	259.752906	615.324969	-364.718053	149.317266	379.904966	-333.685720	-204.529449	834.406007	-223.753132	-78.309466	81.808692	-423.652176	-102.675261	80.454455	-24.354567	
1253	6.2650	631.270375	1264.324649	10.726499	607.701737	1322.986223	-338.891779	629.508340	1340.757881	-163.075236	614.152087	1197.119029	-176.586247	472.635036	1051.134292	94.104011	616.312126	911.360001	10.236940	520.290348	1083.611507	-460.567271	644.006917	914.497428	-390.146247	102.630674	1150.137678	-138.225625	246.407419	1174.643825	-313.696673	299.768812	1136.857641	-17.618450	267.664970	1081.979155	-294.004480	289.193305	1048.935868	-43.133087	155.064780	1194.814942	-82.459211	147.555032	1216.438957	-193.203576	189.375435	1021.227312	24.647512	143.668925	1049.769798	-353.741078	237.980908	889.210933	26.881877	285.867042	819.938631	-1.301698	290.860844	736.252165	-19.769204	318.672736	835.549230	-11.512151	335.173221	643.128527	-51.556704	308.966990	641.973195	-161.189368	276.144855	544.031486	-12.881814	273.936269	456.552962	-28.306305	230.674316	381.616083	-30.362473	301.408374	452.451477	-54.861227	196.652398	287.172129	-43.261402	217.949741	295.729063	-126.424447	140.902444	277.081514	-91.867724	371.345840	199.498693	-83.507259	283.509606	194.277352	-23.270654	232.200602	949.951022	-383.183205	308.744255	910.310111	-375.884693	332.104125	935.810024	-363.028664	356.820013	835.977129	-380.843592	424.047963	750.208478	-375.415740	417.560138	729.625821	-254.847345	80.278183	584.509178	-375.976456	92.021151	572.528563	-295.137140	20.698417	603.205740	-331.999717	88.176767	437.322299	-392.754635	309.788179	705.124073	-408.248637	250.831305	643.826218	-392.890670	163.946807	619.082493	-388.525616	266.864474	621.180423	-364.932510	156.261886	386.692762	-333.327488	-204.515923	834.406753	-223.762923	-78.275745	81.832572	-423.653416	-102.686931	80.456963	-24.348775	
1254	6.2700	632.577854	1263.808721	7.872273	606.521790	1324.220236	-341.153549	628.722158	1341.215029	-164.618524	614.085252	1197.463087	-178.708510	473.527475	1051.715362	93.129695	616.495815	910.852473	9.942733	519.931642	1083.568622	-461.476163	643.972240	914.606428	-390.384521	103.021267	1146.766927	-137.948532	244.213840	1173.629251	-312.437634	301.381837	1134.041265	-17.317623	266.962095	1080.530998	-293.779772	290.739880	1046.386763	-42.823232	156.064426	1191.795463	-80.065168	148.034706	1214.575243	-191.664190	189.344471	1018.198004	25.611090	144.249850	1046.892015	-352.890744	235.649637	885.505869	28.036125	282.061580	815.312248	-0.325362	285.175463	731.645225	-18.942428	315.254252	830.120716	-10.387697	327.860400	637.490801	-50.633620	301.242930	636.483873	-160.232094	270.256369	537.604975	-12.655508	268.496996	450.193900	-28.575825	225.517867	375.057926	-30.278896	295.185149	446.340786	-55.936296	191.349206	281.790196	-43.051089	212.103113	290.179008	-126.367085	135.579640	272.755461	-91.631564	364.841685	191.554654	-83.994665	276.955640	187.736155	-23.620820	235.717142	950.127510	-382.533117	313.443161	912.596302	-375.192884	335.942209	938.766931	-362.177717	363.865937	840.032893	-380.918709	431.448225	755.990253	-375.251116	425.856741	733.905828	-254.739082	87.364881	590.760125	-375.827143	99.239577	578.872432	-294.966988	27.790386	609.475579	-331.795531	95.470335	443.677863	-392.387210	317.595979	710.894228	-408.055777	257.434988	649.404964	-392.211559	171.571965	626.037435	-388.699288	273.983105	626.802519	-365.186649	164.389685	393.768836	-333.998111	-204.511764	834.406372	-223.747646	-78.295916	81.809586	-423.654284	-102.689335	80.438595	-24.351760	
